<svg id="Layer_2" viewBox="0 0 100 100" xmlns="http://www.w3.org/2000/svg" data-name="Layer 2"><path d="m15.091 5.013h70v10h-70z"/><path d="m25.101 85.013h50v10h-50z"/><path d="m15.101 75.013h10v10h-10z"/><path d="m35.091 65.148h30v10h-30z"/><path d="m75.101 75.013h10v10h-10z"/><path d="m85.101 15.148h10v59.893h-10z"/><path d="m15.1012658 15.1476716h-10c.0095011 19.9663469-.0095016 39.8986397-.0000005 59.8649866h10.0000005c-.0095015-19.9663469.0095015-39.8986397 0-59.8649866z"/><path d="m35.091 25.148h10v19.994h-10z"/><path d="m55.091 25.154h10v19.994h-10z"/><path d="m25.091 55.148h10v10h-10z"/><path d="m65.091 55.148h10v10h-10z"/></svg>