<svg id="Layer_1" enable-background="new 0 0 512 512" viewBox="0 0 512 512" xmlns="http://www.w3.org/2000/svg"><g id="_x30_6_gift_box_00000110434837115977738790000013759993090891530136_"><path d="m120.47 301.18v90.35h-30.12v-30.12h-30.11v-30.12h-30.12v-30.11h-30.12v-90.36h30.12v30.12h30.12v30.12h30.11v30.12z"/><path d="m120.47 391.53h30.12v30.12h-30.12z"/><path d="m512 210.82v90.36h-30.12v30.11h-30.12v30.12h-30.11v30.12h-30.12v30.12h-30.12v30.11h-30.12v30.12h-30.11v30.12h-90.36v-30.12h-30.11v-30.12h-30.12v-30.11h30.12v-30.12h30.11v30.12h90.36v-30.12h30.11v-30.12h30.12v-30.12h30.12v-30.11h30.12v-30.12h30.11v-30.12h30.12v-30.12z"/><path d="m512 120.47v60.24h-30.12v30.11h-30.12v30.12h-30.11v30.12h-30.12v30.12h-30.12v30.11h-30.12v30.12h-30.11v30.12h-90.36v-30.12h-30.11v-30.12h30.11v-30.11h30.12v-30.12h30.12v-30.12h30.12v-30.12h30.11v-30.11h30.12v-30.12h30.12v-30.12h30.12v-30.12h30.11v-30.11h30.12v60.23z"/><path d="m391.53 30.12h60.23v30.12h-60.23z"/><path d="m150.59 301.18h30.12v30.11h-30.12z"/><path d="m391.53 0v30.12h-30.12v30.12h-30.12v30.11h-30.11v30.12h-30.12v30.12h-30.12v30.12h-30.12v30.11h-30.11v30.12h-30.12v60.24h-30.12v-30.12h-30.12v-30.12h-30.11v-30.12h-30.12v-30.11h-30.12v-60.24h30.12v-60.23h30.12v-30.12h30.11v-30.12h120.47v30.12h30.12v30.12h30.12v-30.12h30.12v-30.12z"/></g><g/><g/><g/><g/><g/><g/><g/><g/><g/><g/><g/><g/><g/><g/><g/></svg>