<svg id="Layer_1" enable-background="new 0 0 512 512" viewBox="0 0 512 512" xmlns="http://www.w3.org/2000/svg"><g id="_x31_3_archer_00000025428594668374408260000017441069238942376850_"><path d="m512 0v120.47h-60.24v-30.12h-30.11v-30.11h-30.12v-60.24z"/><path d="m391.53 90.35h30.12v30.12h-30.12z"/><path d="m361.41 120.47h30.12v30.12h-30.12z"/><path d="m331.29 150.59h30.12v30.12h-30.12z"/><path d="m210.82 271.06h30.12v30.12h-30.12z"/><path d="m180.71 301.18h30.11v30.11h-30.11z"/><path d="m0 90.35h30.12v240.94h-30.12z"/><path d="m90.35 481.88h60.24v30.12h-60.24z"/><path d="m0 361.41h30.12v60.24h-30.12z"/><path d="m90.35 421.65v60.23h-30.11v-30.12h-30.12v-30.11z"/><path d="m90.35 391.53h30.12v30.12h-30.12z"/><path d="m180.71 331.29v150.59h-30.12v-90.35h-30.12v-30.12h-90.35v-30.12z"/><path d="m180.71 481.88h240.94v30.12h-240.94z"/><path d="m481.88 451.76v60.24h-30.12v-30.12h-30.11v-30.12h-30.12v-30.11h-30.12v-90.36h-30.12v-30.11h-30.11v-30.12h-60.24v-60.24h-30.12v-30.11h-30.11v-30.12h-90.36v-30.12h-30.11v-30.12h-30.12v-30.11h60.23v30.11h120.47v30.12h60.24v30.12h30.12v30.12h30.11v30.11h30.12v30.12h30.12v60.24h30.12v120.47h30.11v30.11z"/><path d="m0 30.12h30.12v30.12h-30.12z"/></g><g/><g/><g/><g/><g/><g/><g/><g/><g/><g/><g/><g/><g/><g/><g/></svg>